<?xml version="1.0" encoding="utf-8"?>
<!-- Generator: Adobe Illustrator 26.0.1, SVG Export Plug-In . SVG Version: 6.00 Build 0)  -->
<svg version="1.1" id="Ebene_1" xmlns="http://www.w3.org/2000/svg" xmlns:xlink="http://www.w3.org/1999/xlink" x="0px" y="0px"
	 viewBox="0 0 158.74 155.34" width="64" height="64" style="enable-background:new 0 0 158.74 155.34;" xml:space="preserve">
<style type="text/css">
	.st0{fill:#BFAA90;}
	.st1{fill:#CD3363;}
	.st2{fill:#576164;}
	.st3{fill:#BEC5C9;}
</style>
<g>
	<polygon class="st0" points="8.5,134.18 8.5,97.8 14.75,97.8 14.75,111.25 14.85,111.25 21.4,97.8 27.65,97.8 20.9,111.35 
		28.51,134.18 22.16,134.18 17.07,117.25 16.97,117.25 14.75,121.28 14.75,134.18 	"/>
	<path class="st0" d="M31.44,97.8h6.25v27.46c0,2.65,1.11,3.98,3.33,3.98c2.22,0,3.33-1.33,3.33-3.98V97.8h6.25v27.21
		c0,3.16-0.85,5.56-2.55,7.21c-1.7,1.65-4.04,2.47-7.03,2.47c-2.99,0-5.33-0.82-7.03-2.47c-1.7-1.65-2.54-4.05-2.54-7.21V97.8z"/>
	<polygon class="st0" points="55.55,134.18 55.55,97.8 61.8,97.8 61.8,128.74 71.62,128.74 71.62,134.18 	"/>
	<polygon class="st0" points="77.21,103.24 71.16,103.24 71.16,97.8 89.5,97.8 89.5,103.24 83.45,103.24 83.45,134.18 77.21,134.18 
			"/>
	<path class="st0" d="M93.38,97.8h6.25v27.46c0,2.65,1.11,3.98,3.33,3.98c2.22,0,3.33-1.33,3.33-3.98V97.8h6.25v27.21
		c0,3.16-0.85,5.56-2.55,7.21c-1.7,1.65-4.04,2.47-7.03,2.47s-5.33-0.82-7.03-2.47c-1.7-1.65-2.54-4.05-2.54-7.21V97.8z"/>
	<path class="st0" d="M123.88,134.18h-6.25V97.8h8.77c3.49,0,6.13,0.82,7.91,2.47c1.78,1.65,2.67,4.4,2.67,8.26
		c0,1.48-0.13,2.74-0.38,3.78c-0.25,1.04-0.59,1.92-1.01,2.65c-0.42,0.72-0.89,1.3-1.41,1.74c-0.52,0.44-1.05,0.77-1.59,1.01
		l5.29,16.48h-6.35l-4.43-15.07c-0.4,0.07-0.9,0.11-1.49,0.13c-0.59,0.02-1.17,0.03-1.74,0.03V134.18z M123.88,114.13h2.22
		c0.84,0,1.55-0.08,2.14-0.25c0.59-0.17,1.07-0.47,1.44-0.91c0.37-0.44,0.64-1.02,0.81-1.74c0.17-0.72,0.25-1.62,0.25-2.7
		c0-2.15-0.35-3.62-1.06-4.41c-0.71-0.79-1.9-1.18-3.58-1.18h-2.22V114.13z"/>
</g>
<g>
	<path class="st1" d="M47.39,62.25c-0.07-0.76-0.21-1.4-0.42-1.91c-0.22-0.51-0.48-0.92-0.8-1.22c-0.32-0.3-0.65-0.51-1.02-0.65
		c-0.36-0.13-0.71-0.2-1.04-0.2c-0.99,0-1.76,0.31-2.29,0.92c-0.53,0.61-0.8,1.48-0.8,2.61c0,1.03,0.31,1.97,0.92,2.83
		c0.61,0.86,1.38,1.72,2.31,2.59c0.93,0.86,1.94,1.73,3.03,2.61c1.09,0.88,2.1,1.85,3.03,2.91c0.93,1.06,1.7,2.23,2.31,3.5
		c0.61,1.28,0.92,2.73,0.92,4.35c0,1.49-0.24,2.81-0.72,3.95c-0.48,1.14-1.14,2.11-1.99,2.88c-0.84,0.78-1.87,1.37-3.08,1.76
		c-1.21,0.4-2.53,0.6-3.95,0.6c-1.43,0-2.7-0.27-3.83-0.8c-1.13-0.53-2.08-1.25-2.86-2.16c-0.78-0.91-1.38-1.96-1.81-3.16
		c-0.43-1.19-0.68-2.47-0.75-3.83l5.87-0.84c0.13,1.82,0.53,3.18,1.19,4.08s1.49,1.34,2.49,1.34c1.06,0,1.92-0.28,2.59-0.84
		c0.66-0.56,0.99-1.38,0.99-2.44c0-1.19-0.31-2.25-0.92-3.18c-0.61-0.93-1.38-1.82-2.31-2.68c-0.93-0.86-1.94-1.72-3.03-2.59
		c-1.09-0.86-2.11-1.81-3.03-2.83s-1.7-2.19-2.31-3.48c-0.61-1.29-0.92-2.8-0.92-4.52c0-2.88,0.83-5.1,2.49-6.64
		c1.66-1.54,4.01-2.31,7.06-2.31c1.26,0,2.39,0.22,3.38,0.65c0.99,0.43,1.85,1.04,2.56,1.81c0.71,0.78,1.29,1.7,1.74,2.76
		c0.45,1.06,0.74,2.22,0.87,3.48L47.39,62.25z"/>
	<polygon class="st1" points="62.34,58.77 56.37,58.77 56.37,53.4 74.47,53.4 74.47,58.77 68.5,58.77 68.5,89.3 62.34,89.3 	"/>
	<path class="st1" d="M80.18,89.3h-5.97l6.61-35.89h7.66l6.61,35.89h-5.97l-1.09-7.95h-6.76L80.18,89.3z M82.17,75.97h4.97
		L84.7,60.56h-0.1L82.17,75.97z"/>
	<polygon class="st1" points="127.34,58.77 121.38,58.77 121.38,53.4 139.47,53.4 139.47,58.77 133.51,58.77 133.51,89.3 
		127.34,89.3 	"/>
	<path class="st1" d="M105.04,89.3h-6.16V53.4h8.65c3.45,0,6.05,0.81,7.81,2.44c1.76,1.62,2.63,4.34,2.63,8.15
		c0,1.46-0.12,2.7-0.37,3.73c-0.25,1.03-0.58,1.9-0.99,2.61c-0.41,0.71-0.88,1.28-1.39,1.72c-0.51,0.43-1.04,0.76-1.57,0.99
		l5.22,16.26h-6.26l-4.38-14.86c-0.4,0.07-0.89,0.11-1.47,0.12c-0.58,0.02-1.15,0.02-1.72,0.02V89.3z M105.04,69.51h2.19
		c0.83,0,1.53-0.08,2.11-0.25c0.58-0.17,1.05-0.46,1.42-0.89c0.36-0.43,0.63-1,0.8-1.72c0.17-0.71,0.25-1.6,0.25-2.66
		c0-2.12-0.35-3.57-1.04-4.35c-0.7-0.78-1.87-1.17-3.53-1.17h-2.19V69.51z"/>
</g>
<g>
	<polygon class="st2" points="72.04,44.91 72.04,8.53 77.83,8.53 85.44,29.34 85.54,29.34 85.54,8.53 91.19,8.53 91.19,44.91 
		85.75,44.91 77.78,22.19 77.68,22.19 77.68,44.91 	"/>
	<polygon class="st2" points="96.31,44.91 96.31,8.53 113.04,8.53 113.04,13.97 102.56,13.97 102.56,23.34 110.62,23.34 
		110.62,28.79 102.56,28.79 102.56,39.47 113.74,39.47 113.74,44.91 	"/>
	<path class="st2" d="M118.03,8.53h6.25v27.47c0,2.65,1.11,3.98,3.33,3.98c2.22,0,3.33-1.33,3.33-3.98V8.53h6.25v27.21
		c0,3.16-0.85,5.56-2.54,7.21c-1.7,1.65-4.04,2.47-7.03,2.47c-2.99,0-5.33-0.82-7.03-2.47c-1.7-1.65-2.54-4.05-2.54-7.21V8.53z"/>
</g>
<polygon class="st3" points="12.63,89.28 8.5,89.29 8.5,8.5 63.5,8.5 63.5,12.54 12.63,12.54 "/>
<polygon class="st3" points="150.24,146.83 8.5,146.83 8.5,142.58 145.98,142.58 145.98,8.5 150.24,8.5 "/>
</svg>
